<?xml version="1.0" standalone="no"?><!DOCTYPE svg PUBLIC "-//W3C//DTD SVG 1.1//EN" "http://www.w3.org/Graphics/SVG/1.1/DTD/svg11.dtd"><svg t="1707328150453" class="icon" viewBox="0 0 1024 1024" version="1.1" xmlns="http://www.w3.org/2000/svg" p-id="1659" xmlns:xlink="http://www.w3.org/1999/xlink" width="64" height="64"><path d="M834.032711 1023.983616a133.373366 133.373366 0 0 1-62.718761-15.871686l-259.322879-142.077194-259.322878 142.077194a133.373366 133.373366 0 0 1-62.718761 15.871686A127.997472 127.997472 0 0 1 59.904 895.986144V137.985115A139.517245 139.517245 0 0 1 200.445224 0.00384h622.579704a140.541224 140.541224 0 0 1 141.053215 137.72528V895.986144a127.997472 127.997472 0 0 1-130.045432 127.997472z m-322.04164-231.931419l290.554262 158.97286a65.534706 65.534706 0 0 0 31.743373 7.935844A63.998736 63.998736 0 0 0 899.311422 895.986144V137.985115a75.262514 75.262514 0 0 0-76.798484-72.958559H200.445224a74.494529 74.494529 0 0 0-76.798483 72.958559V895.986144a63.998736 63.998736 0 0 0 65.278711 62.462767 65.534706 65.534706 0 0 0 31.999368-8.191839z" p-id="1660" fill="#FFC423"></path><path d="M287.22751 247.038961a42.751156 42.751156 0 0 0-44.799115 40.447201 42.495161 42.495161 0 0 0 44.799115 40.447201h450.039112a42.751156 42.751156 0 0 0 45.05511-40.447201 43.007151 43.007151 0 0 0-45.05511-40.447201zM287.22751 486.394234a40.703196 40.703196 0 1 0 0 81.150397h450.039112a40.703196 40.703196 0 1 0 0-81.150397z" p-id="1661" fill="#FFC423"></path></svg>