<?xml version="1.0" standalone="no"?><!DOCTYPE svg PUBLIC "-//W3C//DTD SVG 1.1//EN" "http://www.w3.org/Graphics/SVG/1.1/DTD/svg11.dtd"><svg t="1707328717992" class="icon" viewBox="0 0 1280 1024" version="1.1" xmlns="http://www.w3.org/2000/svg" p-id="4375" xmlns:xlink="http://www.w3.org/1999/xlink" width="80" height="64"><path d="M1270.32315 803.603L893.74515 221.247c-25.217-38.997-82.268-38.997-107.485 0l-105.08 162.499-147.541-226.66c-25.244-38.781-82.031-38.781-107.275 0L10.56015 795.867C-17.59485 839.121 13.85815 896 65.93015 896h1153.637c47.734 0 76.565-52.485 50.756-92.397zM480.00215 192l166.639 256H466.74715L368.00215 546.745l-72.029-72.029L480.00215 192z m414.071 640H65.93015c-0.483 0-1.566 0-1.875-0.986 0.037-0.063 0.083-0.141 0.142-0.231L260.28615 529.54 368.00215 637.255 493.25715 512h195.044l207.505 318.781c0.06 0.091 0.106 0.169 0.143 0.232-0.309 0.987-1.392 0.987-1.876 0.987z m65.917 0c0.222-12.123-3.046-24.611-10.546-36.133l-230.03-353.385L840.00215 256l372.469 576H959.99015z" p-id="4376" fill="#FFC423"></path></svg>