<?xml version="1.0" standalone="no"?><!DOCTYPE svg PUBLIC "-//W3C//DTD SVG 1.1//EN" "http://www.w3.org/Graphics/SVG/1.1/DTD/svg11.dtd"><svg t="1707334555612" class="icon" viewBox="0 0 1137 1024" version="1.1" xmlns="http://www.w3.org/2000/svg" p-id="1836" xmlns:xlink="http://www.w3.org/1999/xlink" width="71.0625" height="64"><path d="M731.989333 608.631467c31.522133 38.6048 28.9792 95.317333-5.888 130.833066a94.139733 94.139733 0 0 1-128.477866 5.973334l-69.717334-59.2384V921.6h-75.4176V621.960533l-162.235733-138.069333 184.9344-188.347733 256.8192 313.122133-0.034133-0.034133zM65.706667 66.8672a221.354667 221.354667 0 0 1 317.0304 0 229.0176 229.0176 0 0 1 65.092266 148.992L211.968 456.055467a221.3888 221.3888 0 0 1-146.295467-66.321067A230.485333 230.485333 0 0 1 0 228.283733c0-60.5696 23.620267-118.647467 65.672533-161.450666l0.034134 0.034133z" p-id="1837" fill="#FFC423"></path></svg>