<?xml version="1.0" standalone="no"?><!DOCTYPE svg PUBLIC "-//W3C//DTD SVG 1.1//EN" "http://www.w3.org/Graphics/SVG/1.1/DTD/svg11.dtd"><svg t="1707328929676" class="icon" viewBox="0 0 1024 1024" version="1.1" xmlns="http://www.w3.org/2000/svg" p-id="5631" xmlns:xlink="http://www.w3.org/1999/xlink" width="64" height="64"><path d="M127.97 298.636l384.038 408.118L896.06 298.636H127.97z m98.752 42.674h570.588L512.008 644.504 226.722 341.31z" fill="#FFC423" p-id="5632"></path><path d="M149.346 469.328c82.47 0 149.348-66.862 149.348-149.346 0-82.47-66.876-149.332-149.348-149.332C66.846 170.65 0 237.512 0 319.982c0 82.484 66.846 149.346 149.346 149.346z" fill="#FFC423" p-id="5633"></path><path d="M149.346 277.324c-35.312 0-64 28.658-64 64.002 0 11.782 9.562 21.328 21.376 21.328 11.75 0 21.312-9.546 21.312-21.328 0-11.766 9.562-21.344 21.312-21.344 11.814 0 21.376-9.546 21.376-21.33 0-11.78-9.562-21.328-21.376-21.328z" fill="#FFC423" p-id="5634"></path><path d="M702.996 661.348c0-106.036-86.002-192.02-192.05-192.02-106.034 0-192.034 85.984-192.034 192.02 0 106.032 86 192.002 192.034 192.002 106.048 0 192.05-85.972 192.05-192.002zM874.686 469.328c82.502 0 149.314-66.862 149.314-149.346 0-82.47-66.812-149.332-149.314-149.332-82.5 0-149.376 66.862-149.376 149.332-0.002 82.484 66.876 149.346 149.376 149.346z" fill="#FFC423" p-id="5635"></path><path d="M874.686 255.98c-35.376 0-64 28.656-64 64.002 0 11.782 9.562 21.344 21.312 21.344 11.812 0 21.376-9.562 21.376-21.344 0-11.766 9.562-21.33 21.312-21.33s21.312-9.546 21.312-21.328c0-11.796-9.562-21.344-21.312-21.344zM510.946 554.688c-58.906 0-106.658 47.752-106.658 106.66 0 11.782 9.534 21.344 21.314 21.344s21.344-9.562 21.344-21.344c0-35.284 28.718-64.002 64-64.002 11.782 0 21.362-9.562 21.362-21.344-0.002-11.784-9.582-21.314-21.362-21.314z" fill="#FFC423" p-id="5636"></path></svg>